<svg xmlns="http://www.w3.org/2000/svg" viewBox="0 0 32 32">
  <rect width="32" height="32" rx="7" fill="#121218"/>
  <path d="M5.2 16c3.4-5.4 7.4-8 10.8-8s7.4 2.6 10.8 8c-3.4 5.4-7.4 8-10.8 8s-7.4-2.6-10.8-8z" fill="#e6e6ee"/>
  <path d="M6.6 16c3-4.6 6.4-6.6 9.4-6.6s6.4 2 9.4 6.6c-3 4.6-6.4 6.6-9.4 6.6s-6.4-2-9.4-6.6z" fill="#121218"/>
  <clipPath id="iris">
    <circle cx="16" cy="16" r="5.4"/>
  </clipPath>
  <g clip-path="url(#iris)">
    <rect x="10" y="10" width="6" height="12" fill="#752222"/>
    <rect x="16" y="10" width="6" height="12" fill="#1a4c26"/>
  </g>
  <circle cx="16" cy="16" r="2.05" fill="#0c0c12"/>
  <circle cx="17.15" cy="14.7" r="0.7" fill="#f4f4fc"/>
</svg>
